<svg xmlns="http://www.w3.org/2000/svg" viewBox="0 0 100 100">
  <defs>
    <linearGradient id="g" x1="0%" y1="0%" x2="100%" y2="100%">
      <stop offset="0%" style="stop-color:#1d4ed8"/>
      <stop offset="100%" style="stop-color:#3b82f6"/>
    </linearGradient>
  </defs>
  <rect width="100" height="100" rx="20" fill="url(#g)"/>
  <path d="M50 20 C35 20 22 30 20 45 L35 45 C37 38 43 33 50 33 C57 33 63 38 65 45 L80 45 C78 30 65 20 50 20Z" fill="#fff" opacity="0.9"/>
  <path d="M50 80 C65 80 78 70 80 55 L65 55 C63 62 57 67 50 67 C43 67 37 62 35 55 L20 55 C22 70 35 80 50 80Z" fill="#fff" opacity="0.9"/>
  <circle cx="50" cy="50" r="8" fill="#fff"/>
</svg>
